<?xml version="1.0" encoding="UTF-8"?>
<svg id="_レイヤー_2" data-name="レイヤー_2" xmlns="http://www.w3.org/2000/svg" xmlns:xlink="http://www.w3.org/1999/xlink" viewBox="0 0 44.24 44.24">
  <defs>
    <style>
      .cls-1, .cls-2, .cls-3 {
        fill: none;
      }

      .cls-4 {
        fill: #25b5aa;
      }

      .cls-2, .cls-5, .cls-6, .cls-7, .cls-3 {
        stroke: #3e3a39;
        stroke-miterlimit: 10;
        stroke-width: .5px;
      }

      .cls-5 {
        fill: #c30d23;
      }

      .cls-6, .cls-7 {
        fill: #fff;
      }

      .cls-7, .cls-3 {
        stroke-linecap: square;
      }

      .cls-8 {
        clip-path: url(#clippath);
      }
    </style>
    <clipPath id="clippath">
      <rect class="cls-1" width="44.24" height="44.24"/>
    </clipPath>
  </defs>
  <g id="_線画とトリムマーク" data-name="線画とトリムマーク">
    <g>
      <rect class="cls-4" width="44.24" height="44.24"/>
      <g class="cls-8">
        <path class="cls-6" d="M42.6,54.86l-5.86,2.08-6.07,2.15.14,1.54,5.22-.89s5.76-1.03,10.49-2.43c4.73-1.4,1.31-5.24.54-6.93s-8.38-10-8.38-10l-2.57-2.62c-2.57-2.62-11.59-2.31-11.59-2.31l.8.61c-1.91-.55-1.01-4.51-1.01-4.51l-5.89,2.34s.67,2.6-.4,3.38l.6-1.53s-1.25-.98-6.64-.3-5.41,1.15-6.88,3.56-3.6,5.6-3.6,5.6"/>
        <path class="cls-6" d="M34.84,36.89c-3.12-1.5-5.37-7.55-5.27-10.08-1.31,2.68-4.2,3.76-4.2,3.76l-.86-6.87,7.99-8.54-2.38,9.92,9.45,12.42,1.59,5.53-6.3-6.15"/>
        <path class="cls-7" d="M7.82,23.14s-1.33,2.79,1.44,4.4"/>
        <path class="cls-6" d="M41.15,43.04c1.69-3.09-2.62-14.51-10.58-17.04,6.09-4.12,3.93-22.56-10.3-22.76l-9.64,4.07c-3.52,3.31-7.74,9.46-3,13.16l.14,1.64c.84,6.6,5.1,11.61,11.19,11.8,0,0,6.23-.66,8.66-6.93,0,0,.75-1.97.42-3.65"/>
        <path class="cls-2" d="M10.62,7.31c.62-.58,1.21-1.07,1.73-1.44,0,0,11.66-9.74,16.43,8.29,3.56-.42,6.74,7.28,1.32,8.99-5.09,1.6-5.81-5.94-3.28-8.1-.94-3.65-3.75-15.36-15.36-7.3-.66.14-.95-.33-.95-.33"/>
        <path class="cls-2" d="M7.63,20.47c-4.74-3.71-.53-9.86,3-13.16"/>
        <path class="cls-2" d="M9.37,12.93s-2.96,3.51-1.65,6.51"/>
        <path class="cls-2" d="M10.63,13.17s-.8,3.04-.51,5.29"/>
        <path class="cls-2" d="M12.36,12.93s-.37,4.03,0,5.52"/>
        <path class="cls-2" d="M14.28,13.17s-.19,3.32.51,4.4"/>
        <path class="cls-2" d="M16.34,13.17s-.23,2.86.8,3.98"/>
        <path class="cls-2" d="M18.44,12.93s-.23,3.18.51,4.21"/>
        <path class="cls-2" d="M20.69,12.75s.05,6.09,3.09,5.15"/>
        <path class="cls-2" d="M16.31,18.78c1.61-.94,4.8-.98,4.8-.98"/>
        <path class="cls-2" d="M7.77,20.14c.84-.89,3.32-1.08,3.32-1.08"/>
        <path class="cls-2" d="M7.77,22.11c.84,6.6,5.1,11.61,11.19,11.8,0,0,6.23-.66,8.66-6.93,0,0,.75-1.97.42-3.65"/>
        <path class="cls-2" d="M41.15,43.04c1.69-3.09-2.62-14.51-10.58-17.04,6.09-4.12,3.93-22.56-10.3-22.76"/>
        <path class="cls-2" d="M25.37,30.57s2.89-1.08,4.2-3.76c-.09,2.53,2.15,8.58,5.27,10.08"/>
        <path class="cls-2" d="M23.78,15.51s-.14,2,2.73,2.06"/>
        <path class="cls-2" d="M28.73,16.82c1.84.03,2.33.44,2.16,1.97s-1.29,2.37-1.85,2.37-2.09-.38-1.78-2.17.91-2.18,1.47-2.17Z"/>
        <path class="cls-2" d="M17.74,24.22c0,.14-.12.25-.21.25s-.1-.11-.1-.25.12-.25.21-.25.11.11.11.25Z"/>
        <path class="cls-2" d="M11.71,25.28c.05.13-.02.28-.1.31s-.14-.07-.19-.19.02-.28.1-.31.14.06.19.19Z"/>
        <path class="cls-3" d="M7.82,23.14s-1.33,2.79,1.44,4.4"/>
        <path class="cls-2" d="M18.4,33.91s.67,2.6-.4,3.38"/>
        <path class="cls-2" d="M24.29,31.56s-.9,3.96,1.01,4.51"/>
        <path class="cls-2" d="M18.6,35.76s-1.25-.98-6.64-.3-5.41,1.15-6.88,3.56-3.6,5.6-3.6,5.6"/>
        <path class="cls-2" d="M14.23,35.24s-1.48,5.63-.42,6.67"/>
        <path class="cls-2" d="M11.96,35.45s-1.37,4.4-.91,5.84c0,0,12.18,3.21,19.14,1.22,0,0,5.13,12.61,5.1,14.76"/>
        <path class="cls-2" d="M13.7,37.5s3,4.32,14.03.71"/>
        <path class="cls-2" d="M24.51,35.46s9.01-.31,11.59,2.31l2.57,2.62s7.61,8.31,8.38,10,4.19,5.52-.54,6.93c-4.73,1.4-10.49,2.43-10.49,2.43l-5.22.89-.14-1.54,6.07-2.15,5.86-2.08"/>
        <path class="cls-2" d="M27.92,35.52s-.66,5.83-.19,7.7"/>
        <path class="cls-2" d="M30.29,35.74s-.3,5.05-.18,6.83"/>
        <path class="cls-2" d="M9.17,45.13l-33.9-2.1s-3.84-.11-4.82,2.22l36.14,1.37,5.87-3.4s4.53-.26,4.88,0,.82,1.03-.28,1.57l-6.93-.21"/>
        <path class="cls-2" d="M11.05,41.29c-.56.83-1.21,3.46-1.21,3.46"/>
        <path class="cls-5" d="M10.62,7.31c.62-.58,1.21-1.07,1.73-1.44,0,0,11.66-9.74,16.43,8.29,3.56-.42,6.74,7.28,1.32,8.99-5.09,1.6-5.81-5.94-3.28-8.1-.94-3.65-3.75-15.36-15.36-7.3-.66.14-.95-.33-.95-.33"/>
        <path class="cls-2" d="M9.37,12.93s-2.96,3.51-1.65,6.51"/>
        <path class="cls-2" d="M10.63,13.17s-.8,3.04-.51,5.29"/>
        <path class="cls-2" d="M12.36,12.93s-.37,4.03,0,5.52"/>
        <path class="cls-2" d="M14.28,13.17s-.19,3.32.51,4.4"/>
        <path class="cls-2" d="M16.34,13.17s-.23,2.86.8,3.98"/>
        <path class="cls-2" d="M18.44,12.93s-.23,3.18.51,4.21"/>
        <path class="cls-2" d="M20.69,12.75s.05,6.09,3.09,5.15"/>
        <path class="cls-2" d="M16.31,18.78c1.61-.94,4.8-.98,4.8-.98"/>
        <path class="cls-2" d="M7.77,20.14c.84-.89,3.32-1.08,3.32-1.08"/>
        <path class="cls-2" d="M23.78,15.51s-.14,2,2.73,2.06"/>
        <path class="cls-6" d="M28.73,16.82c1.84.03,2.33.44,2.16,1.97s-1.29,2.37-1.85,2.37-2.09-.38-1.78-2.17.91-2.18,1.47-2.17Z"/>
        <path class="cls-2" d="M17.74,24.22c0,.14-.12.25-.21.25s-.1-.11-.1-.25.12-.25.21-.25.11.11.11.25Z"/>
        <path class="cls-2" d="M11.71,25.28c.05.13-.02.28-.1.31s-.14-.07-.19-.19.02-.28.1-.31.14.06.19.19Z"/>
        <path class="cls-2" d="M14.23,35.24s-1.48,5.63-.42,6.67"/>
        <path class="cls-2" d="M11.96,35.45s-1.37,4.4-.91,5.84c0,0,12.18,3.21,19.14,1.22,0,0,5.13,12.61,5.1,14.76"/>
        <path class="cls-2" d="M13.7,37.5s3,4.32,14.03.71"/>
        <path class="cls-2" d="M27.92,35.52s-.66,5.83-.19,7.7"/>
        <path class="cls-2" d="M30.29,35.74s-.3,5.05-.18,6.83"/>
        <path class="cls-2" d="M9.17,45.13l-33.9-2.1s-3.84-.11-4.82,2.22l36.14,1.37,5.87-3.4s4.53-.26,4.88,0,.82,1.03-.28,1.57l-6.93-.21"/>
        <path class="cls-2" d="M11.05,41.29c-.56.83-1.21,3.46-1.21,3.46"/>
      </g>
    </g>
  </g>
</svg>